#!OML:ASF F:\VICON\USERDATA\INSTALL\rory3\rory3.ASF
:FULLY-SPECIFIED
:DEGREES
1891
root -2.91896 17.6422 1.30113 1.73203 5.7252 0.637141
lowerback 7.14267 1.30834 -3.65137
upperback 0.136111 1.46208 0.501866
thorax -3.97204 0.799441 2.41823
lowerneck -20.3053 -2.54031 -9.9503
upperneck 31.3592 -1.95049 5.62082
head 14.3392 -1.23011 3.66899
rclavicle 3.59055e-015 1.79403e-014
rhumerus -29.4219 18.6094 -58.673
rradius 94.8272
rwrist 10.1015
rhand -22.499 15.7876
rfingers 7.12502
rthumb 3.92688 -14.156
lclavicle 3.59055e-015 1.79403e-014
lhumerus -39.0796 13.9274 61.7075
lradius 60.6132
lwrist 10.7994
lhand -17.5037 11.1142
lfingers 7.12502
lthumb 8.74929 40.9128
rfemur -13.9027 -13.9679 23.2748
rtibia 38.072
rfoot -25.3408 -9.17965
rtoes 12.7517
lfemur -21.8811 -0.0352983 -16.8741
ltibia 50.3421
lfoot -8.23122 -0.244226
ltoes -36.0822
1892
root -2.85703 17.6179 1.33658 1.86733 6.63118 0.875796
lowerback 6.77695 0.772486 -3.84609
upperback -0.0757423 0.75222 0.70071
thorax -3.94216 0.455859 2.81268
lowerneck -20.3528 -2.72579 -10.1131
upperneck 31.5109 -2.16739 5.62017
head 14.4447 -1.34824 3.66323
rclavicle -5.28022e-015 -7.95139e-015
rhumerus -30.4309 18.2654 -58.1159
rradius 94.5524
rwrist 10.0941
rhand -22.4218 15.806
rfingers 7.12502
rthumb 4.00145 -14.1362
lclavicle -5.28022e-015 -7.95139e-015
lhumerus -38.2938 13.662 62.5352
lradius 60.743
lwrist 10.9333
lhand -17.7108 12.2464
lfingers 7.12502
lthumb 8.54943 42.0533
rfemur -14.1897 -13.9913 22.8434
rtibia 38.8641
rfoot -26.0536 -9.73258
rtoes 11.6959
lfemur -20.5967 -0.0985356 -17.269
ltibia 48.3268
lfoot -10.011 -0.600817
ltoes -35.2295
1893
root -2.79559 17.5987 1.36504 2.04457 7.72325 1.17521
lowerback 6.44469 0.180515 -4.05899
upperback -0.293423 -0.0362743 0.8657
thorax -3.91996 0.0735466 3.18377
lowerneck -20.3587 -2.88362 -10.1739
upperneck 31.6548 -2.36281 5.55247
head 14.5331 -1.45413 3.61468
rclavicle 7.25564e-015 -4.57205e-015
rhumerus -31.3474 17.7322 -57.587
rradius 94.1375
rwrist 10.1818
rhand -22.5519 15.6951
rfingers 7.12502
rthumb 3.87582 -14.2494
lclavicle 7.25564e-015 -4.57205e-015
lhumerus -37.5331 13.3279 63.3526
lradius 60.9643
lwrist 11.0956
lhand -18.1635 13.9323
lfingers 7.12502
lthumb 8.11253 43.7566
rfemur -14.5065 -14.1082 22.3515
rtibia 39.676
rfoot -26.8038 -10.3493
rtoes 10.3639
lfemur -19.6205 -0.0577818 -17.7632
ltibia 46.5275
lfoot -11.4247 -1.35273
ltoes -34.2292
1894
root -2.73497 17.579 1.38545 2.19221 8.84193 1.50957
lowerback 6.24938 -0.403438 -4.29581
upperback -0.518341 -0.822196 1.01569
thorax -3.97166 -0.305089 3.54812
lowerneck -20.305 -3.00966 -10.2816
upperneck 31.7879 -2.53166 5.57315
head 14.6026 -1.54201 3.6153
rclavicle 2.82523e-014 -8.54774e-015
rhumerus -32.3116 16.9791 -57.0832
rradius 93.6516
rwrist 10.2975
rhand -22.7453 15.5162
rfingers 7.12502
rthumb 3.68902 -14.4316
lclavicle 2.82523e-014 -8.54774e-015
lhumerus -36.729 12.951 64.2113
lradius 61.1427
lwrist 11.198
lhand -18.682 15.4115
lfingers 7.12502
lthumb 7.61209 45.2545
rfemur -14.8008 -14.2048 21.8181
rtibia 40.5343
rfoot -27.5739 -10.9272
rtoes 9.58168
lfemur -18.8585 0.332715 -18.352
ltibia 45.011
lfoot -12.7716 -2.34228
ltoes -32.2908
1895
root -2.68067 17.5594 1.40549 2.22264 10.2748 1.84638
lowerback 6.15796 -1.09264 -4.62838
upperback -0.669256 -1.75728 1.21023
thorax -3.97502 -0.757474 4.02405
lowerneck -20.26 -3.13436 -10.4316
upperneck 31.9083 -2.69958 5.64258
head 14.6703 -1.62755 3.64346
rclavicle 8.49804e-015 2.10712e-014
rhumerus -33.1571 16.2321 -56.5115
rradius 93.076
rwrist 10.5486
rhand -23.2184 15.3494
rfingers 7.12502
rthumb 3.23215 -14.6059
lclavicle 8.49804e-015 2.10712e-014
lhumerus -35.7858 12.8142 65.0038
lradius 61.147
lwrist 10.6397
lhand -17.7884 15.0788
lfingers 7.12502
lthumb 8.47459 44.8887
rfemur -14.9308 -14.4542 21.2815
rtibia 41.4968
rfoot -28.3975 -11.4644
rtoes 9.00417
lfemur -18.161 0.826722 -18.987
ltibia 43.789
lfoot -13.7392 -3.1596
ltoes -29.4096
1896
root -2.62896 17.5451 1.42047 2.25604 11.6835 2.14434
lowerback 6.11256 -1.77231 -4.91013
upperback -0.817826 -2.67895 1.38677
thorax -3.98889 -1.2041 4.44892
lowerneck -20.2307 -3.29 -10.5389
upperneck 32.074 -2.9257 5.70049
head 14.7683 -1.73528 3.65019
rclavicle 2.39287e-014 -9.14409e-015
rhumerus -33.9444 15.5318 -55.9408
rradius 92.4782
rwrist 10.7749
rhand -23.8999 15.3106
rfingers 7.12502
rthumb 2.57405 -14.6536
lclavicle 2.39287e-014 -9.14409e-015
lhumerus -34.6942 12.7679 65.6745
lradius 60.9753
lwrist 9.67969
lhand -15.6566 12.9006
lfingers 7.12502
lthumb 10.5314 42.6168
rfemur -15.1324 -14.6254 20.791
rtibia 42.5908
rfoot -29.1059 -11.9816
rtoes 8.48025
lfemur -17.6042 1.51536 -19.6494
ltibia 42.8078
lfoot -14.1991 -3.6034
ltoes -27.3824
1897
root -2.57581 17.5328 1.42742 2.46353 12.1919 2.45753
lowerback 6.02801 -2.14675 -5.27252
upperback -1.07565 -3.19942 1.58222
thorax -4.12291 -1.44236 4.90495
lowerneck -20.1452 -3.45624 -10.7232
upperneck 32.289 -3.13685 5.72959
head 14.8778 -1.85197 3.66234
rclavicle -4.91992e-014 4.37326e-015
rhumerus -34.764 14.8471 -55.2657
rradius 91.9229
rwrist 10.9474
rhand -24.0181 15.3818
rfingers 7.12502
rthumb 2.45989 -14.5837
lclavicle -4.91992e-014 4.37326e-015
lhumerus -33.6173 12.4701 66.5497
lradius 60.8333
lwrist 9.367
lhand -14.9548 11.842
lfingers 7.12502
lthumb 11.2084 41.5226
rfemur -15.7656 -14.13 20.2837
rtibia 43.832
rfoot -29.409 -12.5252
rtoes 7.36712
lfemur -17.296 2.94576 -20.4305
ltibia 42.0091
lfoot -14.5586 -3.83967
ltoes -25.5634
1898
root -2.52304 17.5192 1.43764 2.50175 13.5866 2.97217
lowerback 6.19767 -2.79624 -5.72961
upperback -1.26672 -4.11112 1.69225
thorax -4.26957 -1.87309 5.36836
lowerneck -20.022 -3.63133 -10.8318
upperneck 32.4328 -3.37075 5.69478
head 14.9464 -1.97661 3.62705
rclavicle 8.16011e-014 -1.27222e-014
rhumerus -35.598 13.9768 -54.6311
rradius 91.3852
rwrist 11.2272
rhand -23.6054 15.3926
rfingers 7.12502
rthumb 2.85844 -14.568
lclavicle 8.16011e-014 -1.27222e-014
lhumerus -32.4897 11.8386 67.5249
lradius 60.7621
lwrist 9.98568
lhand -15.5151 11.8368
lfingers 7.12502
lthumb 10.6679 41.546
rfemur -16.0803 -14.4021 19.4978
rtibia 45.2324
rfoot -29.7093 -12.9845
rtoes 6.11395
lfemur -16.9025 3.56024 -21.3534
ltibia 41.2891
lfoot -14.8252 -4.52776
ltoes -22.829
1899
root -2.47896 17.5112 1.43673 2.5511 14.8305 3.23558
lowerback 6.36212 -3.36576 -6.00791
upperback -1.41611 -4.90056 1.8508
thorax -4.3792 -2.24834 5.77141
lowerneck -19.9106 -3.80599 -10.8396
upperneck 32.5023 -3.62836 5.63111
head 14.9824 -2.10047 3.55473
rclavicle 5.12367e-014 -1.03368e-014
rhumerus -36.443 12.9061 -54.0127
rradius 90.8585
rwrist 11.5827
rhand -23.4176 15.2541
rfingers 7.12502
rthumb 3.0398 -14.704
lclavicle 5.12367e-014 -1.03368e-014
lhumerus -31.2794 11.0627 68.5087
lradius 60.7974
lwrist 10.9475
lhand -15.9737 11.9473
lfingers 7.12502
lthumb 10.2255 41.6788
rfemur -16.6167 -14.3911 19.0284
rtibia 46.8047
rfoot -29.7934 -13.453
rtoes 5.49027
lfemur -16.6709 3.99522 -21.9765
ltibia 40.608
lfoot -14.9126 -5.0773
ltoes -21.1044
1900
root -2.43335 17.5068 1.43254 2.51379 15.8146 3.41182
lowerback 6.59643 -3.84894 -6.20239
upperback -1.54018 -5.57183 2.02431
thorax -4.51329 -2.56565 6.14024
lowerneck -19.595 -3.98886 -11.0046
upperneck 32.4544 -3.91573 5.71482
head 14.9291 -2.2359 3.56336
rclavicle 5.31997e-014 -1.35174e-014
rhumerus -37.2179 11.8109 -53.3918
rradius 90.2728
rwrist 12.0203
rhand -23.5696 15.1513
rfingers 7.12502
rthumb 2.89304 -14.8088
lclavicle 5.31997e-014 -1.35174e-014
lhumerus -30.0876 10.434 69.4212
lradius 60.8269
lwrist 11.3968
lhand -16.3294 12.0681
lfingers 7.12502
lthumb 9.88233 41.8162
rfemur -17.2296 -14.0297 18.619
rtibia 48.5316
rfoot -29.6208 -13.9713
rtoes 5.88921
lfemur -16.3433 4.19742 -22.4595
ltibia 39.9249
lfoot -14.9005 -5.36154
ltoes -19.5774
